<svg width="2400" height="1080" viewBox="0 0 2400 1080" fill="none" xmlns="http://www.w3.org/2000/svg">
  <defs>
    <linearGradient id="arena" x1="0" y1="0" x2="0" y2="1">
      <stop offset="0%" stop-color="#101414"/>
      <stop offset="100%" stop-color="#1B1915"/>
    </linearGradient>
    <radialGradient id="acidFog" cx="50%" cy="50%" r="50%">
      <stop offset="0%" stop-color="#A6FF28" stop-opacity="0.42"/>
      <stop offset="100%" stop-color="#A6FF28" stop-opacity="0"/>
    </radialGradient>
    <filter id="glow" x="-30%" y="-30%" width="160%" height="160%">
      <feGaussianBlur stdDeviation="12" result="blur"/>
      <feMerge>
        <feMergeNode in="blur"/>
        <feMergeNode in="SourceGraphic"/>
      </feMerge>
    </filter>
  </defs>

  <rect width="2400" height="1080" rx="44" fill="#050607"/>
  <rect x="18" y="18" width="2364" height="1044" rx="40" fill="#0A0D10" stroke="#2B2E2A" stroke-width="4"/>
  <rect x="66" y="114" width="2268" height="714" rx="26" fill="url(#arena)"/>

  <rect x="0" y="0" width="2400" height="94" fill="#090B0D" opacity="0.94"/>
  <text x="90" y="60" fill="#F0F5F2" font-family="Segoe UI, Apple SD Gothic Neo, sans-serif" font-size="40" font-weight="700">정화 전투 · Android Landscape Battle</text>
  <text x="1902" y="59" fill="#96A299" font-family="Segoe UI, Apple SD Gothic Neo, sans-serif" font-size="24">Encounter / Sulfuric Mist Mutant</text>

  <rect x="100" y="132" width="620" height="118" rx="20" fill="#101517" opacity="0.95" stroke="#35433A" stroke-width="3"/>
  <text x="134" y="178" fill="#EAF5EC" font-family="Segoe UI, sans-serif" font-size="30" font-weight="700">플레이어 · 지상 조사단 요원</text>
  <text x="134" y="216" fill="#A8B7AC" font-family="Segoe UI, sans-serif" font-size="21">장비: 중화제 Mk.1 / 환기 모듈 / 흡착제</text>

  <rect x="1678" y="132" width="620" height="138" rx="20" fill="#121611" opacity="0.95" stroke="#4A5445" stroke-width="3"/>
  <text x="1712" y="178" fill="#F0F6EE" font-family="Segoe UI, sans-serif" font-size="30" font-weight="700">황산 미스트 변이체</text>
  <text x="1712" y="216" fill="#B4E08D" font-family="Segoe UI, sans-serif" font-size="21">GHS05 부식성 · 산성 안개 / 시야 방해 패턴</text>
  <text x="1712" y="248" fill="#C9D7CB" font-family="Segoe UI, sans-serif" font-size="18">약점: 중화제</text>

  <g>
    <rect x="96" y="282" width="520" height="80" rx="18" fill="#101517" opacity="0.92"/>
    <text x="128" y="316" fill="#AEB9B1" font-family="Segoe UI, sans-serif" font-size="18">플레이어 HP</text>
    <rect x="128" y="328" width="330" height="16" rx="8" fill="#2C322D"/>
    <rect x="128" y="328" width="258" height="16" rx="8" fill="#56D1F4"/>
    <text x="474" y="342" fill="#ECF3EE" font-family="Segoe UI, sans-serif" font-size="18">78 / 100</text>
  </g>

  <g>
    <rect x="1784" y="290" width="432" height="88" rx="18" fill="#121611" opacity="0.92"/>
    <text x="1816" y="324" fill="#AEB9B1" font-family="Segoe UI, sans-serif" font-size="18">오염 게이지</text>
    <rect x="1816" y="336" width="254" height="16" rx="8" fill="#2C322D"/>
    <rect x="1816" y="336" width="196" height="16" rx="8" fill="#96FF2B"/>
    <text x="2088" y="350" fill="#ECF3EE" font-family="Segoe UI, sans-serif" font-size="18">61 / 100</text>
  </g>

  <rect x="152" y="446" width="840" height="250" rx="24" fill="#0C1215" opacity="0.3"/>
  <rect x="1408" y="360" width="700" height="320" rx="24" fill="#0F120D" opacity="0.28"/>

  <g opacity="0.92">
    <ellipse cx="1712" cy="526" rx="240" ry="144" fill="#7DFF21" fill-opacity="0.12"/>
    <ellipse cx="1712" cy="526" rx="190" ry="112" fill="url(#acidFog)"/>
    <ellipse cx="1712" cy="658" rx="330" ry="48" fill="#111513"/>
    <rect x="1590" y="410" width="180" height="170" rx="28" fill="#6C8A33" fill-opacity="0.22" stroke="#A0D13E" stroke-width="6"/>
    <rect x="1628" y="340" width="118" height="88" rx="18" fill="#775A31"/>
    <rect x="1612" y="318" width="152" height="28" rx="14" fill="#8D6938"/>
    <circle cx="1658" cy="470" r="16" fill="#1D2218"/>
    <circle cx="1726" cy="484" r="18" fill="#1D2218"/>
    <path d="M1646 544Q1692 582 1756 538" stroke="#3A402A" stroke-width="14" stroke-linecap="round"/>
    <path d="M1572 452C1528 414 1534 350 1606 324" stroke="#B8FF49" stroke-width="22" stroke-linecap="round"/>
    <path d="M1762 462C1824 438 1864 392 1830 320" stroke="#C7F48D" stroke-width="24" stroke-linecap="round"/>
    <path d="M1560 598C1496 630 1466 650 1440 700" stroke="#B2FF47" stroke-width="16" stroke-linecap="round" opacity="0.72"/>
  </g>

  <g transform="translate(484 414) scale(4.4)">
    <rect x="24" y="78" width="28" height="34" fill="#20313F"/>
    <rect x="12" y="44" width="52" height="42" fill="#214D70"/>
    <rect x="18" y="22" width="38" height="24" fill="#6A3F20"/>
    <rect x="22" y="18" width="30" height="8" fill="#8A542D"/>
    <rect x="28" y="30" width="8" height="8" fill="#F0D2A6"/>
    <rect x="44" y="30" width="8" height="8" fill="#F0D2A6"/>
    <rect x="34" y="38" width="12" height="10" fill="#1B2328"/>
    <rect x="6" y="48" width="12" height="34" fill="#1D2427"/>
    <rect x="58" y="50" width="38" height="12" fill="#1D2427"/>
    <rect x="90" y="46" width="12" height="12" fill="#A2F7FF"/>
    <rect x="-2" y="34" width="12" height="36" fill="#505C63"/>
    <rect x="0" y="42" width="8" height="16" fill="#7AFF1D"/>
    <rect x="18" y="112" width="12" height="28" fill="#403D39"/>
    <rect x="42" y="112" width="12" height="28" fill="#403D39"/>
    <rect x="14" y="136" width="18" height="6" fill="#1D1F1D"/>
    <rect x="40" y="136" width="18" height="6" fill="#1D1F1D"/>
  </g>

  <g filter="url(#glow)">
    <path d="M890 502C980 500 1088 520 1150 560C1110 580 1040 600 964 602C900 604 830 594 770 572C808 540 846 518 890 502Z" fill="#8BEFFF" fill-opacity="0.9"/>
    <path d="M960 486C1042 494 1112 514 1198 558C1104 628 930 638 774 574C818 540 886 492 960 486Z" fill="#A8F8FF" fill-opacity="0.42"/>
  </g>

  <g opacity="0.82">
    <path d="M1156 562C1232 544 1314 544 1390 574" stroke="#72F7FF" stroke-width="10" stroke-dasharray="16 16"/>
    <circle cx="1414" cy="580" r="12" fill="#8FFBFF"/>
  </g>

  <rect x="126" y="742" width="706" height="106" rx="22" fill="#101618" opacity="0.96" stroke="#32413A" stroke-width="3"/>
  <text x="158" y="788" fill="#EFF7F1" font-family="Segoe UI, sans-serif" font-size="28" font-weight="700">배틀 로그</text>
  <text x="158" y="826" fill="#9CD2B0" font-family="Segoe UI, sans-serif" font-size="22">중화제가 적중했다. 황산 안개 농도가 감소한다.</text>

  <rect x="0" y="878" width="2400" height="202" fill="#0B1012"/>

  <g>
    <circle cx="208" cy="978" r="70" fill="#182123" stroke="#4C5D57" stroke-width="5"/>
    <circle cx="208" cy="978" r="34" fill="#2A3737"/>
    <path d="M208 922V950M208 1006V1034M152 978H180M236 978H264" stroke="#C5D2CA" stroke-width="10" stroke-linecap="round"/>
  </g>

  <g>
    <rect x="598" y="910" width="370" height="126" rx="26" fill="#214137" stroke="#4C8E74" stroke-width="4"/>
    <circle cx="658" cy="972" r="24" fill="#74F1C8"/>
    <text x="704" y="958" fill="#F4FFF8" font-family="Segoe UI, sans-serif" font-size="30" font-weight="700">중화제 살포</text>
    <text x="704" y="996" fill="#B7E6D4" font-family="Segoe UI, sans-serif" font-size="20">추천 대응 / 부식성 약점</text>
  </g>

  <g>
    <rect x="1002" y="910" width="340" height="126" rx="26" fill="#312444" stroke="#73549D" stroke-width="4"/>
    <circle cx="1060" cy="972" r="22" fill="#C78DFF"/>
    <text x="1100" y="958" fill="#FAF4FF" font-family="Segoe UI, sans-serif" font-size="30" font-weight="700">환기 모듈</text>
    <text x="1100" y="996" fill="#D7C1F1" font-family="Segoe UI, sans-serif" font-size="20">안개 제거</text>
  </g>

  <g>
    <rect x="1372" y="910" width="340" height="126" rx="26" fill="#203245" stroke="#507899" stroke-width="4"/>
    <circle cx="1430" cy="972" r="22" fill="#7FC7FF"/>
    <text x="1470" y="958" fill="#F1FAFF" font-family="Segoe UI, sans-serif" font-size="30" font-weight="700">흡착제 투입</text>
    <text x="1470" y="996" fill="#BDD8EA" font-family="Segoe UI, sans-serif" font-size="20">확산 억제</text>
  </g>

  <g>
    <circle cx="2156" cy="944" r="42" fill="#2A2330" stroke="#7B6A8E" stroke-width="4"/>
    <text x="2140" y="955" fill="#FAF6FF" font-family="Segoe UI, sans-serif" font-size="22" font-weight="700">B</text>
    <circle cx="2252" cy="978" r="52" fill="#22383A" stroke="#5C9E93" stroke-width="4"/>
    <text x="2232" y="990" fill="#F4FFFC" font-family="Segoe UI, sans-serif" font-size="26" font-weight="700">A</text>
    <circle cx="2154" cy="1016" r="42" fill="#362920" stroke="#A47A55" stroke-width="4"/>
    <text x="2139" y="1027" fill="#FFF5E9" font-family="Segoe UI, sans-serif" font-size="22" font-weight="700">X</text>
  </g>

  <rect x="1690" y="726" width="594" height="110" rx="22" fill="#101618" opacity="0.95" stroke="#34413A" stroke-width="3"/>
  <text x="1722" y="772" fill="#EEF7EF" font-family="Segoe UI, sans-serif" font-size="28" font-weight="700">패턴 경고</text>
  <text x="1722" y="808" fill="#C4F097" font-family="Segoe UI, sans-serif" font-size="22">산성 안개 분출까지 02.1초</text>
</svg>